<svg width="98" height="98" viewBox="0 0 98 98" fill="none" xmlns="http://www.w3.org/2000/svg">
<g filter="url(#filter0_d_275_129)">
<rect x="4" width="90" height="90" rx="45" fill="white"/>
<path d="M57.7303 44.4041C57.4635 42.3877 56.5726 40.5193 55.1949 39.0869C53.8173 37.6544 52.0293 36.7372 50.1064 36.4767C48.1835 36.2162 46.2323 36.6267 44.5535 37.6451C42.8746 38.6635 41.5613 40.2332 40.8157 42.1124M40.27 37.5291V42.1124H44.6351M40.27 46.6958C40.5369 48.7122 41.4278 50.5805 42.8054 52.013C44.1831 53.4455 45.9711 54.3626 47.894 54.6232C49.8169 54.8837 51.7681 54.4731 53.4469 53.4548C55.1257 52.4364 56.4391 50.8667 57.1847 48.9874M57.7303 53.5708V48.9874H53.3653" stroke="#E30613" stroke-width="2" stroke-linecap="round" stroke-linejoin="round"/>
<g clip-path="url(#clip0_275_129)">
<path d="M38.875 18C39.3226 18 39.7518 18.1778 40.0682 18.4943C40.3847 18.8107 40.5625 19.2399 40.5625 19.6875V24.75H43.9375V19.6875C43.9375 19.2399 44.1153 18.8107 44.4318 18.4943C44.7482 18.1778 45.1774 18 45.625 18C46.0726 18 46.5018 18.1778 46.8182 18.4943C47.1347 18.8107 47.3125 19.2399 47.3125 19.6875V24.75H50.6875V19.6875C50.6875 19.2399 50.8653 18.8107 51.1818 18.4943C51.4982 18.1778 51.9274 18 52.375 18C52.8226 18 53.2518 18.1778 53.5682 18.4943C53.8847 18.8107 54.0625 19.2399 54.0625 19.6875V24.75H57.4375V19.6875C57.4375 19.2399 57.6153 18.8107 57.9318 18.4943C58.2482 18.1778 58.6774 18 59.125 18C59.5726 18 60.0018 18.1778 60.3182 18.4943C60.6347 18.8107 60.8125 19.2399 60.8125 19.6875V24.75C63.0503 24.75 65.1964 25.6389 66.7787 27.2213C68.361 28.8036 69.25 30.9497 69.25 33.1875H74.3125C74.7601 33.1875 75.1893 33.3653 75.5057 33.6818C75.8222 33.9982 76 34.4274 76 34.875C76 35.3226 75.8222 35.7518 75.5057 36.0682C75.1893 36.3847 74.7601 36.5625 74.3125 36.5625H69.25V39.9375H74.3125C74.7601 39.9375 75.1893 40.1153 75.5057 40.4318C75.8222 40.7482 76 41.1774 76 41.625C76 42.0726 75.8222 42.5018 75.5057 42.8182C75.1893 43.1347 74.7601 43.3125 74.3125 43.3125H69.25V46.6875H74.3125C74.7601 46.6875 75.1893 46.8653 75.5057 47.1818C75.8222 47.4982 76 47.9274 76 48.375C76 48.8226 75.8222 49.2518 75.5057 49.5682C75.1893 49.8847 74.7601 50.0625 74.3125 50.0625H69.25V53.4375H74.3125C74.7601 53.4375 75.1893 53.6153 75.5057 53.9318C75.8222 54.2482 76 54.6774 76 55.125C76 55.5726 75.8222 56.0018 75.5057 56.3182C75.1893 56.6347 74.7601 56.8125 74.3125 56.8125H69.25C69.25 59.0503 68.361 61.1964 66.7787 62.7787C65.1964 64.361 63.0503 65.25 60.8125 65.25V70.3125C60.8125 70.7601 60.6347 71.1893 60.3182 71.5057C60.0018 71.8222 59.5726 72 59.125 72C58.6774 72 58.2482 71.8222 57.9318 71.5057C57.6153 71.1893 57.4375 70.7601 57.4375 70.3125V65.25H54.0625V70.3125C54.0625 70.7601 53.8847 71.1893 53.5682 71.5057C53.2518 71.8222 52.8226 72 52.375 72C51.9274 72 51.4982 71.8222 51.1818 71.5057C50.8653 71.1893 50.6875 70.7601 50.6875 70.3125V65.25H47.3125V70.3125C47.3125 70.7601 47.1347 71.1893 46.8182 71.5057C46.5018 71.8222 46.0726 72 45.625 72C45.1774 72 44.7482 71.8222 44.4318 71.5057C44.1153 71.1893 43.9375 70.7601 43.9375 70.3125V65.25H40.5625V70.3125C40.5625 70.7601 40.3847 71.1893 40.0682 71.5057C39.7518 71.8222 39.3226 72 38.875 72C38.4274 72 37.9982 71.8222 37.6818 71.5057C37.3653 71.1893 37.1875 70.7601 37.1875 70.3125V65.25C34.9497 65.25 32.8036 64.361 31.2213 62.7787C29.6389 61.1964 28.75 59.0503 28.75 56.8125H23.6875C23.2399 56.8125 22.8107 56.6347 22.4943 56.3182C22.1778 56.0018 22 55.5726 22 55.125C22 54.6774 22.1778 54.2482 22.4943 53.9318C22.8107 53.6153 23.2399 53.4375 23.6875 53.4375H28.75V50.0625H23.6875C23.2399 50.0625 22.8107 49.8847 22.4943 49.5682C22.1778 49.2518 22 48.8226 22 48.375C22 47.9274 22.1778 47.4982 22.4943 47.1818C22.8107 46.8653 23.2399 46.6875 23.6875 46.6875H28.75V43.3125H23.6875C23.2399 43.3125 22.8107 43.1347 22.4943 42.8182C22.1778 42.5018 22 42.0726 22 41.625C22 41.1774 22.1778 40.7482 22.4943 40.4318C22.8107 40.1153 23.2399 39.9375 23.6875 39.9375H28.75V36.5625H23.6875C23.2399 36.5625 22.8107 36.3847 22.4943 36.0682C22.1778 35.7518 22 35.3226 22 34.875C22 34.4274 22.1778 33.9982 22.4943 33.6818C22.8107 33.3653 23.2399 33.1875 23.6875 33.1875H28.75C28.75 30.9497 29.6389 28.8036 31.2213 27.2213C32.8036 25.6389 34.9497 24.75 37.1875 24.75V19.6875C37.1875 19.2399 37.3653 18.8107 37.6818 18.4943C37.9982 18.1778 38.4274 18 38.875 18ZM37.1875 28.125C35.8448 28.125 34.5572 28.6584 33.6078 29.6078C32.6584 30.5572 32.125 31.8448 32.125 33.1875V56.8125C32.125 58.1552 32.6584 59.4428 33.6078 60.3922C34.5572 61.3416 35.8448 61.875 37.1875 61.875H60.8125C62.1552 61.875 63.4428 61.3416 64.3922 60.3922C65.3416 59.4428 65.875 58.1552 65.875 56.8125V33.1875C65.875 31.8448 65.3416 30.5572 64.3922 29.6078C63.4428 28.6584 62.1552 28.125 60.8125 28.125H37.1875Z" fill="#E30613"/>
</g>
</g>
<defs>
<filter id="filter0_d_275_129" x="0" y="0" width="98" height="98" filterUnits="userSpaceOnUse" color-interpolation-filters="sRGB">
<feFlood flood-opacity="0" result="BackgroundImageFix"/>
<feColorMatrix in="SourceAlpha" type="matrix" values="0 0 0 0 0 0 0 0 0 0 0 0 0 0 0 0 0 0 127 0" result="hardAlpha"/>
<feOffset dy="4"/>
<feGaussianBlur stdDeviation="2"/>
<feComposite in2="hardAlpha" operator="out"/>
<feColorMatrix type="matrix" values="0 0 0 0 0 0 0 0 0 0 0 0 0 0 0 0 0 0 0.15 0"/>
<feBlend mode="normal" in2="BackgroundImageFix" result="effect1_dropShadow_275_129"/>
<feBlend mode="normal" in="SourceGraphic" in2="effect1_dropShadow_275_129" result="shape"/>
</filter>
<clipPath id="clip0_275_129">
<rect width="54" height="54" fill="white" transform="translate(22 18)"/>
</clipPath>
</defs>
</svg>
