<svg width="98" height="98" viewBox="0 0 98 98" fill="none" xmlns="http://www.w3.org/2000/svg">
<g filter="url(#filter0_d_275_82)">
<rect x="4" width="90" height="90" rx="45" fill="white"/>
<path d="M34.9739 19.9358H54.304C55.2234 19.9358 55.9712 20.2702 56.4827 20.8713L56.5149 20.9094L56.5491 20.9456L65.6809 30.3372C66.3618 31.0375 66.679 31.8842 66.679 32.7073V64.7874C66.679 66.6826 65.1768 68.1663 63.4358 68.1663H34.9739C33.2331 68.166 31.7307 66.6824 31.7307 64.7874V23.3147C31.7308 21.4198 33.2331 19.936 34.9739 19.9358Z" stroke="#E30613" stroke-width="3"/>
<g clip-path="url(#clip0_275_82)">
<path d="M57.5315 35.7V54.1941C57.5315 54.998 56.8696 55.6599 56.0657 55.6599L42.5032 55.6599C41.6992 55.6599 41.0374 54.9981 41.0374 54.1941V35.7C41.0374 34.896 41.6992 34.2341 42.5032 34.2341L56.0657 34.2341C56.8696 34.2342 57.5314 34.8961 57.5315 35.7Z" stroke="#E30613" stroke-width="2"/>
<path d="M51.473 56.6606L52.7059 56.6606V49.2628C52.7059 48.5847 53.2607 48.0299 53.9389 48.0299C54.617 48.0299 55.1718 48.5847 55.1718 49.2628V49.8793L56.4048 49.8793V49.2628C56.4048 47.9066 55.2951 46.7969 53.9389 46.7969C52.5826 46.7969 51.473 47.9066 51.473 49.2628V51.1123L47.7741 51.1123V49.2628C47.7741 47.5367 46.4178 46.1804 44.6917 46.1804C42.9656 46.1804 41.6093 47.5367 41.6093 49.2628V50.4958L42.8423 50.4958V49.2628C42.8423 48.2148 43.6437 47.4134 44.6917 47.4134C45.7397 47.4134 46.5411 48.2148 46.5411 49.2628V56.6606L47.7741 56.6606V52.3452L51.473 52.3452V56.6606ZM47.7741 40.6321V38.7827L51.473 38.7827V40.6321C51.473 41.9884 52.5826 43.098 53.9389 43.098C55.2951 43.098 56.4048 41.9884 56.4048 40.6321L56.4048 38.7827L55.1718 38.7827V40.6321C55.1718 41.3102 54.617 41.8651 53.9389 41.8651C53.2607 41.8651 52.7059 41.3102 52.7059 40.6321V33.2344L51.473 33.2344V37.5497L47.7741 37.5497V33.2344L46.5411 33.2344V40.6321C46.5411 41.6801 45.7397 42.4816 44.6917 42.4816C43.6437 42.4816 42.8423 41.6801 42.8423 40.6321V39.3992L41.6093 39.3992V40.6321C41.6093 42.3583 42.9656 43.7145 44.6917 43.7145C46.4178 43.7145 47.7741 42.3583 47.7741 40.6321Z" fill="#E30613"/>
</g>
<path d="M37 74L37 69" stroke="#E30613" stroke-width="2" stroke-linecap="round"/>
<path d="M41 74L41 69" stroke="#E30613" stroke-width="2" stroke-linecap="round"/>
<path d="M45 74L45 69" stroke="#E30613" stroke-width="2" stroke-linecap="round"/>
<path d="M49 74L49 69" stroke="#E30613" stroke-width="2" stroke-linecap="round"/>
<path d="M53 74L53 69" stroke="#E30613" stroke-width="2" stroke-linecap="round"/>
<path d="M57 74L57 69" stroke="#E30613" stroke-width="2" stroke-linecap="round"/>
<path d="M61 74L61 69" stroke="#E30613" stroke-width="2" stroke-linecap="round"/>
<path d="M37 19L37 14" stroke="#E30613" stroke-width="2" stroke-linecap="round"/>
<path d="M41 19L41 14" stroke="#E30613" stroke-width="2" stroke-linecap="round"/>
<path d="M45 19L45 14" stroke="#E30613" stroke-width="2" stroke-linecap="round"/>
<path d="M49 19L49 14" stroke="#E30613" stroke-width="2" stroke-linecap="round"/>
<path d="M53 19L53 14" stroke="#E30613" stroke-width="2" stroke-linecap="round"/>
<path d="M56 20L56 21L58 21L58 20L56 20ZM58 14C58 13.4477 57.5523 13 57 13C56.4477 13 56 13.4477 56 14L58 14ZM57 20L58 20L58 14L57 14L56 14L56 20L57 20Z" fill="#E30613"/>
<path d="M60 24L60 25L62 25L62 24L60 24ZM62 14C62 13.4477 61.5523 13 61 13C60.4477 13 60 13.4477 60 14L62 14ZM61 24L62 24L62 14L61 14L60 14L60 24L61 24Z" fill="#E30613"/>
<path d="M25 40L30 40" stroke="#E30613" stroke-width="2" stroke-linecap="round"/>
<path d="M25 36L30 36" stroke="#E30613" stroke-width="2" stroke-linecap="round"/>
<path d="M25 32L30 32" stroke="#E30613" stroke-width="2" stroke-linecap="round"/>
<path d="M25 28L30 28" stroke="#E30613" stroke-width="2" stroke-linecap="round"/>
<path d="M25 24L30 24" stroke="#E30613" stroke-width="2" stroke-linecap="round"/>
<path d="M25 44L30 44" stroke="#E30613" stroke-width="2" stroke-linecap="round"/>
<path d="M25 48L30 48" stroke="#E30613" stroke-width="2" stroke-linecap="round"/>
<path d="M25 52L30 52" stroke="#E30613" stroke-width="2" stroke-linecap="round"/>
<path d="M25 56L30 56" stroke="#E30613" stroke-width="2" stroke-linecap="round"/>
<path d="M25 60L30 60" stroke="#E30613" stroke-width="2" stroke-linecap="round"/>
<path d="M25 64L30 64" stroke="#E30613" stroke-width="2" stroke-linecap="round"/>
<path d="M68 40L73 40" stroke="#E30613" stroke-width="2" stroke-linecap="round"/>
<path d="M68 36L73 36" stroke="#E30613" stroke-width="2" stroke-linecap="round"/>
<path d="M68 32L73 32" stroke="#E30613" stroke-width="2" stroke-linecap="round"/>
<path d="M68 44L73 44" stroke="#E30613" stroke-width="2" stroke-linecap="round"/>
<path d="M68 48L73 48" stroke="#E30613" stroke-width="2" stroke-linecap="round"/>
<path d="M68 52L73 52" stroke="#E30613" stroke-width="2" stroke-linecap="round"/>
<path d="M68 56L73 56" stroke="#E30613" stroke-width="2" stroke-linecap="round"/>
<path d="M68 60L73 60" stroke="#E30613" stroke-width="2" stroke-linecap="round"/>
<path d="M68 64L73 64" stroke="#E30613" stroke-width="2" stroke-linecap="round"/>
</g>
<defs>
<filter id="filter0_d_275_82" x="0" y="0" width="98" height="98" filterUnits="userSpaceOnUse" color-interpolation-filters="sRGB">
<feFlood flood-opacity="0" result="BackgroundImageFix"/>
<feColorMatrix in="SourceAlpha" type="matrix" values="0 0 0 0 0 0 0 0 0 0 0 0 0 0 0 0 0 0 127 0" result="hardAlpha"/>
<feOffset dy="4"/>
<feGaussianBlur stdDeviation="2"/>
<feComposite in2="hardAlpha" operator="out"/>
<feColorMatrix type="matrix" values="0 0 0 0 0 0 0 0 0 0 0 0 0 0 0 0 0 0 0.15 0"/>
<feBlend mode="normal" in2="BackgroundImageFix" result="effect1_dropShadow_275_82"/>
<feBlend mode="normal" in="SourceGraphic" in2="effect1_dropShadow_275_82" result="shape"/>
</filter>
<clipPath id="clip0_275_82">
<rect width="24.8564" height="20.7137" fill="white" transform="translate(59.6411 32.6667) rotate(90)"/>
</clipPath>
</defs>
</svg>
